<svg width="138" height="50" fill="none" xmlns="http://www.w3.org/2000/svg" viewBox="0 0 58 22" preserveAspectRatio="none"><path fill-rule="evenodd" clip-rule="evenodd" d="M30.834 18.43v-5.416l-6.218-2.44 3.264-3.209-4.278-3.842-1.213 2.352.046-2.261-5.42 1.753.139 2.947.92-.242.958 10.399 3.822-.569-.007-3.472 7.987 4z" fill="#0B0000"/><path fill-rule="evenodd" clip-rule="evenodd" d="M18.035 6.123l3.293-.992.203 3.435 2.427-3.449 2.37 2.285-3.314 3.535 6.82 2.736v3.146l-7.924-4.014.013 4.205-2.05.283-.875-10.52-.924.242-.04-.892z" fill="#fff"/><path fill-rule="evenodd" clip-rule="evenodd" d="M43.009 4.04h-3.59l-.103.596H35.54L33.775 15.56l4.308.687.236-1.568 1.127 2.103.684-1.343.253 2.204 4.882.871L43.01 4.041z" fill="#0B0000"/><path fill-rule="evenodd" clip-rule="evenodd" d="M40.363 5.05h1.828l1.851 12.17-2.699-.418-.717-4.814-1.014 2.654-1.522-3.317h-.017l-.602 3.846-2.529-.448 1.506-9.11h2.559l.638 3.532.718-4.095z" fill="#fff"/><path fill-rule="evenodd" clip-rule="evenodd" d="M47.579 5.037l5.4 1.2.403 2.02.435-1.82 4.597 1.126L54 21.024l-3.387-1.08-.026-1.349-3.25-.46 1.096-9.879-.814-.185-.04-3.034z" fill="#0B0000"/><path fill-rule="evenodd" clip-rule="evenodd" d="M48.54 6.298l3.52.717 1.186 5.686 1.213-5.098 2.679.603-3.773 11.567-1.874-.569-.163-6.991-.944 5.393-2.044-.326.917-9.794-.77-.209.052-.979z" fill="#fff"/><path fill-rule="evenodd" clip-rule="evenodd" d="M47.06 16.58c-1.166.444-2.406.393-3.403-.145-.924-.495-1.569-1.352-1.818-2.412-.499-2.113.88-4.525 3.074-5.377 1.18-.45 2.43-.397 3.434.145a3.565 3.565 0 011.794 2.358c.509 2.144-.87 4.58-3.08 5.43z" fill="#0B0000"/><path fill-rule="evenodd" clip-rule="evenodd" d="M49.287 11.345c-.4-1.696-2.187-2.547-4.022-1.847-1.778.69-2.945 2.638-2.543 4.333.413 1.75 2.184 2.598 4.019 1.898 1.791-.686 2.958-2.648 2.546-4.384z" fill="#fff"/><path fill-rule="evenodd" clip-rule="evenodd" d="M47.954 11.644c-.037.935-.84 1.642-1.825 1.601-.967-.04-1.711-.807-1.675-1.742.037-.879.838-1.585 1.822-1.545.97.04 1.715.808 1.678 1.686z" fill="#0B0000"/><path fill-rule="evenodd" clip-rule="evenodd" d="M46.704 9.999c-.588-.024-1.08.387-1.104.915-.02.528.44.979 1.027 1.002.589.024 1.08-.386 1.104-.915.02-.528-.439-.979-1.027-1.002z" fill="#fff"/><path fill-rule="evenodd" clip-rule="evenodd" d="M17.283 17.758c-1.193.511-2.486.511-3.546-.004-.98-.477-1.689-1.339-1.991-2.432-.605-2.177.728-4.744 2.974-5.723 1.207-.515 2.51-.515 3.577.007a3.706 3.706 0 011.964 2.375c.618 2.207-.718 4.801-2.978 5.777z" fill="#0B0000"/><path fill-rule="evenodd" clip-rule="evenodd" d="M19.407 12.115c-.492-1.763-2.4-2.577-4.294-1.763-1.838.801-2.978 2.894-2.486 4.657.505 1.82 2.4 2.63 4.294 1.82 1.851-.8 2.991-2.91 2.486-4.714z" fill="#fff"/><path fill-rule="evenodd" clip-rule="evenodd" d="M18.124 12.452c0 .935-.774 1.672-1.758 1.672-.967 0-1.741-.737-1.741-1.672 0-.878.774-1.619 1.758-1.619.967 0 1.741.737 1.741 1.619z" fill="#0B0000"/><path fill-rule="evenodd" clip-rule="evenodd" d="M16.811 10.857c-.588 0-1.067.43-1.067.959 0 .528.476.959 1.067.959.588 0 1.067-.431 1.067-.96 0-.527-.479-.958-1.067-.958z" fill="#fff"/><path fill-rule="evenodd" clip-rule="evenodd" d="M10.699 14.508c2.566-1.908 3.789-4.791 2.862-6.955a4.67 4.67 0 00-1.988-2.217A4.752 4.752 0 009.47 4.58c-1.874-.333-4.125.01-6.338.962-.814.35-1.576.754-2.26 1.195L0 7.29l.522.895 1.622 2.776s.498.854.502.85l.88-.433.123-.06 4.032 9.114.389.874.904-.292 2.184-.707.957-.31-.253-.982-1.163-4.508z" fill="#000"/><path fill-rule="evenodd" clip-rule="evenodd" d="M12.586 7.98c-.322-.75-.877-1.339-1.602-1.753-.525-.353-1.133-.528-1.702-.592-1.615-.286-3.626-.017-5.743.892-.754.323-1.46.693-2.107 1.11l1.622 2.776c.415-.205.864-.424 1.107-.555l4.483 10.13 2.184-.707-1.346-5.241c2.582-1.605 3.885-4.24 3.104-6.06z" fill="#fff"/><path fill-rule="evenodd" clip-rule="evenodd" d="M35.524 10.645l-1.536-1.4.755-.81.678-.73-.625-.777c-1.22-1.521-3.17-2.13-5.218-1.629-2.848.693-4.454 3.176-3.819 5.898a4.233 4.233 0 001.914 2.645c1.17.73 2.643.928 4.142.561 1.582-.387 2.745-1.036 3.765-2.102l.818-.855-.874-.8z" fill="#0B0000"/><path fill-rule="evenodd" clip-rule="evenodd" d="M33.163 9.982c-.385.461-.827.882-1.612 1.074-.262.064-.618.124-.844.084l3.3-3.556c-.93-1.161-2.459-1.7-4.19-1.276-2.154.525-3.61 2.342-3.072 4.657.432 1.86 2.466 3 4.826 2.425 1.43-.35 2.423-.908 3.314-1.84l-1.722-1.568z" fill="#fff"/><path fill-rule="evenodd" clip-rule="evenodd" d="M28.009 4.714L32.05 0l2.237 3.381-5.108 2.78-1.17-1.447z" fill="#0B0000"/><path fill-rule="evenodd" clip-rule="evenodd" d="M31.877 1.5L33.06 3.13l-3.38 1.695-.236-.36L31.877 1.5z" fill="#fff"/><path fill-rule="evenodd" clip-rule="evenodd" d="M29.372 10.036a1.242 1.242 0 01.166-1.423c.35-.387.881-.498 1.336-.32l-1.502 1.743zm.166-1.423c-.359.4-.409.975-.166 1.423l1.502-1.743a1.201 1.201 0 00-1.336.32zm2.17-.582a1.867 1.867 0 00-2.662.128 1.922 1.922 0 00.127 2.694c.063.061.133.111.202.159l2.47-2.847a5.113 5.113 0 00-.136-.134zm-2.336 2.005a1.242 1.242 0 01.166-1.423c.35-.387.881-.498 1.336-.32l-1.502 1.743zM10.889 9.713c-.193-1.073-1.573-1.675-2.955-.925l.345 1.231.546 1.817.249.828c1.037-.663 2.08-1.464 1.815-2.95zm-1.373 1.642l-.472-1.571c.003.006-.067-.232-.14-.498.293-.054.572-.027.805.087.13.064.352.209.399.485.11.615-.1 1.056-.592 1.497zM11.48 21.963c.004.01.008.017.01.027 0 .004.004.007.004.01-.003-.013-.01-.023-.013-.037zM54.973 19.803h.994v.148h-.412v1.094h-.17V19.95h-.412v-.148zM56.114 21.045v-1.242h.24l.352 1.05.349-1.05h.236v1.242h-.156v-.734c0-.027 0-.067.003-.124v-.189l-.349 1.047h-.163l-.352-1.047v.037c0 .03 0 .078.003.138 0 .061.004.108.004.138v.734h-.167z" fill="#000"/></svg>