<svg width="375" height="190" viewBox="0 0 375 190" fill="none" xmlns="http://www.w3.org/2000/svg">
<g filter="url(#filter0_d)">
<path d="M100.6 27.8V110H123.2V130.2H100.6V159H77.2V130.2H11.4V112.4L77.8 27.8H100.6ZM39.4 112.4H78.4V62.8L39.4 112.4ZM189.145 26.6C197.145 26.6 204.412 28 210.945 30.8C217.612 33.4667 223.279 37.6 227.945 43.2C238.079 55.0667 243.145 72.0667 243.145 94.2C243.145 116.333 238.079 133.333 227.945 145.2C218.612 156.267 205.745 161.8 189.345 161.8C172.812 161.8 159.812 156.267 150.345 145.2C140.345 133.6 135.345 116.6 135.345 94.2C135.345 71.8 140.345 54.8 150.345 43.2C159.812 32.1333 172.745 26.6 189.145 26.6ZM218.745 94.2C218.745 79.2667 216.145 67.8667 210.945 60C205.879 52 198.612 48 189.145 48C179.812 48 172.545 52 167.345 60C162.279 67.8667 159.745 79.2667 159.745 94.2C159.745 109.133 162.279 120.533 167.345 128.4C172.545 136.133 179.812 140 189.145 140C198.612 140 205.879 136.133 210.945 128.4C216.145 120.533 218.745 109.133 218.745 94.2ZM346.108 27.8V110H368.708V130.2H346.108V159H322.708V130.2H256.908V112.4L323.308 27.8H346.108ZM284.908 112.4H323.908V62.8L284.908 112.4Z" fill="black" fill-opacity="0.5"/>
</g>
<defs>
<filter id="filter0_d" x="-13" y="-20" width="409.708" height="232" filterUnits="userSpaceOnUse" color-interpolation-filters="sRGB">
<feFlood flood-opacity="0" result="BackgroundImageFix"/>
<feColorMatrix in="SourceAlpha" type="matrix" values="0 0 0 0 0 0 0 0 0 0 0 0 0 0 0 0 0 0 127 0"/>
<feOffset dx="4" dy="4"/>
<feGaussianBlur stdDeviation="12"/>
<feColorMatrix type="matrix" values="0 0 0 0 0.00392157 0 0 0 0 0.0666667 0 0 0 0 0.14902 0 0 0 0.2 0"/>
<feBlend mode="normal" in2="BackgroundImageFix" result="effect1_dropShadow"/>
<feBlend mode="normal" in="SourceGraphic" in2="effect1_dropShadow" result="shape"/>
</filter>
</defs>
</svg>
